<svg width="24" height="24" viewBox="0 0 24 24" fill="none" xmlns="http://www.w3.org/2000/svg">
    <path d="M0.253297 4.4096C0.173036 4.3303 0.109331 4.23596 0.0658566 4.13201C0.0223826 4.02806 0 3.91657 0 3.80396C0 3.69135 0.0223826 3.57985 0.0658566 3.4759C0.109331 3.37195 0.173036 3.27761 0.253297 3.19831L3.14764 0.315084C3.30889 0.154457 3.52759 0.0642169 3.75563 0.0642169C3.86854 0.0642169 3.98035 0.0863713 4.08467 0.129415C4.18898 0.172459 4.28377 0.23555 4.36361 0.315084C4.44345 0.394619 4.50679 0.489041 4.55 0.592958C4.59321 0.696875 4.61545 0.808253 4.61545 0.920732C4.61545 1.03321 4.59321 1.14459 4.55 1.24851C4.50679 1.35242 4.44345 1.44684 4.36361 1.52638L1.46926 4.4096C1.38966 4.48956 1.29495 4.55302 1.1906 4.59632C1.08625 4.63963 0.974325 4.66193 0.861281 4.66193C0.748237 4.66193 0.636312 4.63963 0.531962 4.59632C0.427612 4.55302 0.332902 4.48956 0.253297 4.4096ZM0.861281 9.45098C0.973978 9.45163 1.08569 9.43011 1.19003 9.38766C1.29436 9.34521 1.38925 9.28266 1.46926 9.2036L9.17611 1.52638C9.25595 1.44684 9.31928 1.35242 9.36249 1.24851C9.4057 1.14459 9.42794 1.03321 9.42794 0.920732C9.42794 0.808253 9.4057 0.696875 9.36249 0.592958C9.31928 0.489041 9.25595 0.394619 9.17611 0.315084C9.09626 0.23555 9.00148 0.172459 8.89716 0.129415C8.79284 0.0863713 8.68103 0.0642169 8.56812 0.0642169C8.34008 0.0642169 8.12138 0.154457 7.96014 0.315084L0.253297 7.99231C0.173036 8.07161 0.109331 8.16595 0.0658566 8.2699C0.0223826 8.37385 0 8.48535 0 8.59796C0 8.71057 0.0223826 8.82206 0.0658566 8.92601C0.109331 9.02996 0.173036 9.1243 0.253297 9.2036C0.333311 9.28266 0.428204 9.34521 0.532536 9.38766C0.636867 9.43011 0.748584 9.45163 0.861281 9.45098ZM0.861281 14.2791C0.973978 14.2798 1.08569 14.2582 1.19003 14.2158C1.29436 14.1733 1.38925 14.1108 1.46926 14.0317L14.04 1.52638C14.1352 1.45259 14.2137 1.35959 14.2704 1.25347C14.327 1.14735 14.3605 1.0305 14.3686 0.910588C14.3768 0.790673 14.3594 0.670399 14.3176 0.557646C14.2758 0.444893 14.2106 0.342207 14.1262 0.256319C14.0418 0.17043 13.9401 0.103278 13.8279 0.0592621C13.7156 0.0152464 13.5953 -0.00463892 13.4747 0.000909497C13.3542 0.00645791 13.2362 0.0373149 13.1285 0.0914579C13.0208 0.145601 12.9258 0.221808 12.8497 0.315084L0.253297 12.8631C0.173036 12.9424 0.109331 13.0367 0.0658566 13.1407C0.0223826 13.2446 0 13.3561 0 13.4687C0 13.5813 0.0223826 13.6928 0.0658566 13.7968C0.109331 13.9007 0.173036 13.9951 0.253297 14.0744C0.41901 14.2247 0.637291 14.3043 0.861281 14.2962V14.2791ZM0.861281 19.1072C0.973978 19.1079 1.08569 19.0864 1.19003 19.0439C1.29436 19.0015 1.38925 18.9389 1.46926 18.8598L18.8867 1.52638C19.048 1.36575 19.1386 1.14789 19.1386 0.920732C19.1386 0.69357 19.048 0.475712 18.8867 0.315084C18.7255 0.154457 18.5068 0.0642169 18.2787 0.0642169C18.0507 0.0642169 17.832 0.154457 17.6708 0.315084L0.253297 17.6656C0.173036 17.7449 0.109331 17.8393 0.0658566 17.9432C0.0223826 18.0472 0 18.1586 0 18.2713C0 18.3839 0.0223826 18.4954 0.0658566 18.5993C0.109331 18.7033 0.173036 18.7976 0.253297 18.8769C0.333311 18.956 0.428204 19.0185 0.532536 19.061C0.636867 19.1034 0.748584 19.1249 0.861281 19.1243V19.1072ZM23.7335 0.340675C23.6539 0.260722 23.5592 0.197262 23.4548 0.153955C23.3505 0.110648 23.2385 0.0883517 23.1255 0.0883517C23.0124 0.0883517 22.9005 0.110648 22.7962 0.153955C22.6918 0.197262 22.5971 0.260722 22.5175 0.340675L0.253297 22.5193C0.173036 22.5986 0.109331 22.693 0.0658566 22.7969C0.0223826 22.9009 0 23.0124 0 23.125C0 23.2376 0.0223826 23.3491 0.0658566 23.453C0.109331 23.557 0.173036 23.6513 0.253297 23.7306C0.332902 23.8106 0.427612 23.874 0.531962 23.9173C0.636312 23.9606 0.748237 23.9829 0.861281 23.9829C0.974325 23.9829 1.08625 23.9606 1.1906 23.9173C1.29495 23.874 1.38966 23.8106 1.46926 23.7306L23.7335 1.55197C23.8177 1.47228 23.8847 1.37636 23.9306 1.27004C23.9764 1.16372 24 1.04923 24 0.933528C24 0.817825 23.9764 0.703333 23.9306 0.597014C23.8847 0.490696 23.8177 0.394774 23.7335 0.315084V0.340675ZM22.5175 5.18586L5.14286 22.4937C5.0626 22.573 4.99889 22.6674 4.95542 22.7713C4.91194 22.8753 4.88956 22.9868 4.88956 23.0994C4.88956 23.212 4.91194 23.3235 4.95542 23.4274C4.99889 23.5314 5.0626 23.6257 5.14286 23.705C5.22246 23.785 5.31717 23.8484 5.42152 23.8917C5.52587 23.9351 5.6378 23.9573 5.75084 23.9573C5.86389 23.9573 5.97581 23.9351 6.08016 23.8917C6.18451 23.8484 6.27922 23.785 6.35883 23.705L23.7335 6.3545C23.8486 6.1881 23.9007 5.9864 23.8804 5.78532C23.8602 5.58425 23.7689 5.39686 23.6229 5.25655C23.4769 5.11624 23.2857 5.03212 23.0832 5.01917C22.8808 5.00622 22.6803 5.06529 22.5175 5.18586ZM22.5175 10.014L9.94679 22.4937C9.86653 22.573 9.80282 22.6674 9.75935 22.7713C9.71588 22.8753 9.69349 22.9868 9.69349 23.0994C9.69349 23.212 9.71588 23.3235 9.75935 23.4274C9.80282 23.5314 9.86653 23.6257 9.94679 23.705C10.0264 23.785 10.1211 23.8484 10.2255 23.8917C10.3298 23.9351 10.4417 23.9573 10.5548 23.9573C10.6678 23.9573 10.7797 23.9351 10.8841 23.8917C10.9884 23.8484 11.0832 23.785 11.1628 23.705L23.7335 11.157C23.8947 10.9964 23.9853 10.7785 23.9853 10.5514C23.9853 10.3242 23.8947 10.1064 23.7335 9.94574C23.5722 9.78511 23.3535 9.69487 23.1255 9.69487C22.8974 9.69487 22.6788 9.78511 22.5175 9.94574V10.014ZM22.5175 14.8421L14.8107 22.5193C14.7304 22.5986 14.6667 22.693 14.6232 22.7969C14.5797 22.9009 14.5574 23.0124 14.5574 23.125C14.5574 23.2376 14.5797 23.3491 14.6232 23.453C14.6667 23.557 14.7304 23.6513 14.8107 23.7306C14.8903 23.8106 14.985 23.874 15.0893 23.9173C15.1937 23.9606 15.3056 23.9829 15.4186 23.9829C15.5317 23.9829 15.6436 23.9606 15.748 23.9173C15.8523 23.874 15.947 23.8106 16.0266 23.7306L23.7335 16.0534C23.8947 15.8928 23.9853 15.6749 23.9853 15.4477C23.9853 15.2206 23.8947 15.0027 23.7335 14.8421C23.5722 14.6815 23.3535 14.5912 23.1255 14.5912C22.8974 14.5912 22.6788 14.6815 22.5175 14.8421ZM22.5175 19.6532L19.6232 22.5364C19.5429 22.6157 19.4792 22.71 19.4357 22.814C19.3922 22.9179 19.3699 23.0294 19.3699 23.142C19.3699 23.2546 19.3922 23.3661 19.4357 23.4701C19.4792 23.574 19.5429 23.6684 19.6232 23.7477C19.7028 23.8276 19.7975 23.8911 19.9018 23.9344C20.0062 23.9777 20.1181 24 20.2311 24C20.3442 24 20.4561 23.9777 20.5605 23.9344C20.6648 23.8911 20.7595 23.8276 20.8391 23.7477L23.7335 20.8645C23.8133 20.7849 23.8766 20.6905 23.9199 20.5866C23.9631 20.4827 23.9853 20.3713 23.9853 20.2588C23.9853 20.1463 23.9631 20.035 23.9199 19.931C23.8766 19.8271 23.8133 19.7327 23.7335 19.6532C23.6536 19.5736 23.5588 19.5105 23.4545 19.4675C23.3502 19.4244 23.2384 19.4023 23.1255 19.4023C23.0126 19.4023 22.9008 19.4244 22.7964 19.4675C22.6921 19.5105 22.5973 19.5736 22.5175 19.6532Z"/>
</svg>
