<svg width="24" height="24" viewBox="0 0 24 24" fill="none" xmlns="http://www.w3.org/2000/svg">
    <path fill-rule="evenodd" clip-rule="evenodd" d="M22 2H2V22H22V2ZM0 0V24H24V0H0Z" fill="black"/>
    <path d="M6 13.4202H6.82116V10.0657H6V13.4202Z" fill="black"/>
    <path d="M9.16727 13.4953C9.63584 13.4953 9.97451 13.3639 10.2297 13.1153C10.457 12.8948 10.6055 12.5898 10.6287 12.2567H9.80749C9.77038 12.5804 9.52913 12.815 9.16263 12.815C8.67086 12.815 8.36466 12.3693 8.36466 11.7547C8.36466 11.1448 8.61983 10.6897 9.15799 10.6897C9.51058 10.6897 9.74254 10.9196 9.7843 11.2198H10.6055C10.5637 10.8445 10.3967 10.5161 10.109 10.2956C9.87244 10.1126 9.54769 10 9.16263 10C8.17445 10 7.52959 10.7554 7.52959 11.7547C7.52959 12.7587 8.19301 13.4953 9.16727 13.4953Z" fill="black"/>
    <path d="M12.816 12.8244C12.2825 12.8244 12.0088 12.3599 12.0088 11.75C12.0088 11.1401 12.2825 10.6709 12.816 10.6709C13.3542 10.6709 13.6186 11.1401 13.6186 11.75C13.6186 12.3599 13.3542 12.8244 12.816 12.8244ZM12.8114 13.5C13.8181 13.5 14.4537 12.754 14.4537 11.75C14.4537 10.746 13.8181 10 12.8114 10C11.8093 10 11.1737 10.746 11.1737 11.75C11.1737 12.754 11.8093 13.5 12.8114 13.5Z" fill="black"/>
    <path d="M15.1607 13.4202H15.9633V11.8579C15.9633 11.7406 15.9541 11.309 15.9541 11.309H15.9633C15.9633 11.309 16.1443 11.6702 16.1999 11.7594L17.1742 13.4202H18V10.0657H17.1974V11.6562C17.1974 11.7735 17.2067 12.1769 17.2067 12.1769H17.1974C17.1974 12.1769 17.0211 11.8438 16.9701 11.75L15.9865 10.0657H15.1607V13.4202Z" fill="black"/>
</svg>
