<svg width="24" height="24" viewBox="0 0 24 24" fill="none" xmlns="http://www.w3.org/2000/svg">
    <path d="M20.7437 3.72766H23.5313C23.7902 3.72766 24 3.51782 24 3.25891V0.46875C24 0.209839 23.7902 0 23.5313 0H20.7437C20.4847 0 20.2749 0.209839 20.2749 0.46875V1.39508H13.8625V0.46875C13.8625 0.209839 13.6527 0 13.3938 0H10.6062C10.3473 0 10.1375 0.209839 10.1375 0.46875V1.39508H3.7251V0.46875C3.7251 0.209839 3.51526 0 3.25635 0H0.46875C0.209839 0 0 0.209839 0 0.46875V3.25891C0 3.51782 0.209839 3.72766 0.46875 3.72766H3.25635C3.51526 3.72766 3.7251 3.51782 3.7251 3.25891V2.33258H7.62451C6.2514 2.95514 5.01343 3.86957 4.0047 5.02588C2.42303 6.83899 1.50861 9.1333 1.40295 11.5312H0.46875C0.209839 11.5312 0 11.7411 0 12V14.7902C0 15.0491 0.209839 15.2589 0.46875 15.2589H3.25635C3.51526 15.2589 3.7251 15.0491 3.7251 14.7902V12C3.7251 11.7411 3.51526 11.5312 3.25635 11.5312H2.34155C2.55762 7.11383 5.80719 3.35229 10.1375 2.50671V3.25909C10.1375 3.51801 10.3473 3.72784 10.6062 3.72784H13.3938C13.6527 3.72784 13.8625 3.51801 13.8625 3.25909V2.50671C18.1928 3.35229 21.4424 7.11383 21.6584 11.5312H20.7437C20.4847 11.5312 20.2749 11.7411 20.2749 12V14.7902C20.2749 15.0491 20.4847 15.2589 20.7437 15.2589H23.5313C23.7902 15.2589 24 15.0491 24 14.7902V12C24 11.7411 23.7902 11.5312 23.5313 11.5312H22.597C22.4914 9.1333 21.577 6.83899 19.9953 5.02588C18.9866 3.86957 17.7486 2.95514 16.3755 2.33258H20.2749V3.25909C20.2749 3.51782 20.4847 3.72766 20.7437 3.72766ZM2.7876 2.79016H0.9375V0.9375H2.7876V2.79016ZM2.7876 14.3214H0.9375V12.4688H2.7876V14.3214ZM23.0625 14.3214H21.2124V12.4688H23.0625V14.3214ZM12.925 2.79016H11.075V0.9375H12.925V2.79016ZM21.2124 0.9375H23.0625V2.79016H21.2124V0.9375Z" fill="#7209B7"/>
    <path d="M12.4105 5.16449C12.3281 5.01489 12.1708 4.92188 12 4.92188C11.8292 4.92188 11.6719 5.01489 11.5895 5.16449L9.64252 8.69916C9.51764 8.92603 9.60022 9.21112 9.82709 9.33582C10.0536 9.46069 10.3389 9.3783 10.4637 9.15143L11.5312 7.21326V10.6701C10.8805 10.8708 10.4062 11.4778 10.4062 12.1935C10.4062 13.0723 11.1213 13.7873 12 13.7873C12.8787 13.7873 13.5938 13.0723 13.5938 12.1935C13.5938 11.4778 13.1195 10.8708 12.4688 10.6701V7.21326L15.6846 13.0521C14.6281 14.1207 13.908 15.4915 13.6282 16.9688H10.3718C10.0919 15.4915 9.3717 14.1207 8.31537 13.0521L8.8526 12.0767C8.97748 11.85 8.8949 11.5649 8.66821 11.4401C8.44153 11.3152 8.15625 11.3976 8.03137 11.6245L7.32092 12.9146C7.21655 13.1039 7.25537 13.3403 7.41486 13.4865C8.42432 14.4109 9.12524 15.6356 9.41528 16.9688H8.97876C8.20331 16.9688 7.57251 17.5997 7.57251 18.375C7.57251 18.9221 7.88653 19.3967 8.34375 19.6291V23.5313C8.34375 23.7902 8.55359 24 8.8125 24C9.07141 24 9.28125 23.7902 9.28125 23.5313V19.7812H14.7188V23.5313C14.7188 23.7902 14.9286 24 15.1875 24C15.4464 24 15.6562 23.7902 15.6562 23.5313V19.6291C16.1135 19.3967 16.4275 18.9219 16.4275 18.375C16.4275 17.5995 15.7967 16.9688 15.0212 16.9688H14.5847C14.8748 15.6354 15.5757 14.4109 16.5851 13.4863C16.7446 13.3401 16.7834 13.1039 16.6791 12.9144L12.4105 5.16449ZM12 12.8498C11.6382 12.8498 11.3438 12.5554 11.3438 12.1935C11.3438 11.8315 11.6382 11.5373 12 11.5373C12.3618 11.5373 12.6562 11.8315 12.6562 12.1935C12.6562 12.5554 12.3618 12.8498 12 12.8498ZM15.49 18.375C15.49 18.6335 15.2798 18.8438 15.0212 18.8438H8.97876C8.72021 18.8438 8.51001 18.6335 8.51001 18.375C8.51001 18.1165 8.72021 17.9062 8.97876 17.9062H15.0212C15.2798 17.9062 15.49 18.1165 15.49 18.375Z" fill="#7209B7"/>
    <path d="M9.21698 10.8807C9.34039 10.8807 9.46124 10.8309 9.5484 10.7437C9.63556 10.656 9.68573 10.5357 9.68573 10.4119C9.68573 10.2885 9.63556 10.1682 9.5484 10.0805C9.46124 9.99335 9.34039 9.94318 9.21698 9.94318C9.0932 9.94318 8.97235 9.99335 8.88519 10.0805C8.79803 10.1682 8.74823 10.2885 8.74823 10.4119C8.74823 10.5357 8.79803 10.656 8.88519 10.7437C8.97235 10.8309 9.0932 10.8807 9.21698 10.8807Z" fill="#7209B7"/>
</svg>
