<svg width="24" height="22" viewBox="0 0 24 22" fill="none" xmlns="http://www.w3.org/2000/svg">
    <path d="M17.4524 21.9998C17.2844 21.9998 17.1124 21.9788 16.9424 21.9338L1.47951 17.7928C0.419523 17.5008 -0.212471 16.4028 0.0655263 15.3428L2.01651 8.07092C2.08851 7.80392 2.3625 7.64892 2.6285 7.71692C2.8955 7.78792 3.0535 8.06292 2.9825 8.32892L1.03252 15.5988C0.893518 16.1288 1.21152 16.6808 1.74251 16.8278L17.1994 20.9668C17.7304 21.1068 18.2783 20.7908 18.4163 20.2628L19.1973 17.3688C19.2693 17.1018 19.5433 16.9428 19.8103 17.0158C20.0773 17.0878 20.2343 17.3628 20.1633 17.6288L19.3833 20.5188C19.1483 21.4088 18.3383 21.9998 17.4524 21.9998Z" fill="black"/>
    <path d="M21.9993 15.9998H5.99947C4.89648 15.9998 3.99949 15.1029 3.99949 13.9999V1.99998C3.99949 0.896991 4.89648 0 5.99947 0H21.9993C23.1023 0 23.9993 0.896991 23.9993 1.99998V13.9999C23.9993 15.1029 23.1023 15.9998 21.9993 15.9998ZM5.99947 0.99999C5.44847 0.99999 4.99948 1.44899 4.99948 1.99998V13.9999C4.99948 14.5509 5.44847 14.9999 5.99947 14.9999H21.9993C22.5503 14.9999 22.9993 14.5509 22.9993 13.9999V1.99998C22.9993 1.44899 22.5503 0.99999 21.9993 0.99999H5.99947Z" fill="black"/>
    <path d="M8.99944 6.99993C7.89645 6.99993 6.99946 6.10294 6.99946 4.99995C6.99946 3.89696 7.89645 2.99997 8.99944 2.99997C10.1024 2.99997 10.9994 3.89696 10.9994 4.99995C10.9994 6.10294 10.1024 6.99993 8.99944 6.99993ZM8.99944 3.99996C8.44844 3.99996 7.99945 4.44896 7.99945 4.99995C7.99945 5.55095 8.44844 5.99994 8.99944 5.99994C9.55043 5.99994 9.99943 5.55095 9.99943 4.99995C9.99943 4.44896 9.55043 3.99996 8.99944 3.99996Z" fill="black"/>
    <path d="M4.56948 14.9299C4.44148 14.9299 4.31349 14.8809 4.21549 14.7839C4.02049 14.5889 4.02049 14.2719 4.21549 14.0769L8.93844 9.35391C9.50443 8.78791 10.4934 8.78791 11.0594 9.35391L12.4654 10.7599L16.3574 6.08994C16.6404 5.75094 17.0564 5.55395 17.4994 5.54995H17.5104C17.9484 5.54995 18.3633 5.73994 18.6493 6.07294L23.8793 12.1749C24.0593 12.3839 24.0353 12.6999 23.8253 12.8799C23.6163 13.0599 23.3013 13.0369 23.1203 12.8259L17.8904 6.72393C17.7934 6.61193 17.6594 6.54994 17.5104 6.54994C17.4064 6.54094 17.2234 6.61293 17.1264 6.72993L12.8834 11.8209C12.7934 11.9289 12.6624 11.9939 12.5214 11.9999C12.3794 12.0099 12.2444 11.9539 12.1454 11.8539L10.3524 10.0609C10.1634 9.8729 9.83443 9.8729 9.64543 10.0609L4.92248 14.7839C4.82548 14.8809 4.69748 14.9299 4.56948 14.9299Z"/>
</svg>
